<svg version="1.2" xmlns="http://www.w3.org/2000/svg" viewBox="0 0 674 224" width="674" height="224"><style>.a{fill:#2d4059}.b{fill:#f07b3f}</style><path class="a" d="m26.1 177.6l17.1 25.4h-14.3l-14.6-24.3h-0.2v24.3h-11.7v-60.3h15.9q20.1 0 20.1 18.1 0 6.2-3.1 10.8-3.3 5-9.2 6zm-10.4-25.3h-1.6v18.1h1.5q11.1 0 11.1-9.2 0-5.2-3.1-7.2-2.5-1.7-7.9-1.7zm65.9 31.5v1.4h-25.9q0 4.3 1.7 7.1 2.1 3.4 6.1 3.4 4.9 0 7.5-5.3l10.3 1.6q-2 5.9-6.8 9.1-4.8 3.2-11 3.2-9 0-14.3-5.8-5.3-5.7-5.3-14.8 0-9.4 4.7-15.1 5-6.2 14.3-6.2 9.3 0 14.2 6.3 4.5 5.7 4.5 15.1zm-25.6-5.6h15q-0.5-3.2-2.3-5.4-2.1-2.5-5.1-2.5-6.4 0-7.6 7.9zm57.5-13.3v10.8q-3.9-3.8-8.3-3.8-4.5 0-7.3 3.7-2.6 3.2-2.6 8 0 4.7 2.8 8 2.9 3.2 7.5 3.2 4.5 0 7.9-3.7v10.8q-4.3 2.4-9.7 2.4-8.7 0-14.3-6-5.5-6-5.5-14.8 0-9 5.6-15 5.8-6.1 14.8-6.1 5.1 0 9.1 2.5zm6.9-1.2h11.2v4.1h0.2q3.5-5.4 9.8-5.4 2.1 0 4.6 1l-1.4 10.4q-2-1.4-4.6-1.4-5.2 0-7.2 4.1-1.4 2.9-1.4 8.8v17.7h-11.2zm29.2 23.1v-23.1h11.2v21.3q0 9.8 6.4 9.8 6.4 0 6.4-9.8v-21.3h11.2v23.1q0 17.5-17.6 17.5-17.6 0-17.6-17.5zm43.6-23.1h11.2v39.3h-11.2zm5.6-23.1q2.7 0 4.6 2 2 1.9 2 4.6 0 2.8-1.9 4.7-1.9 1.9-4.7 1.9-2.8 0-4.8-1.9-1.9-2-1.9-4.7 0-2.7 1.9-4.6 2-2 4.8-2zm33.5 32.5h-6.9v29.9h-11.2v-29.9h-3.8v-9.4h3.8v-13.3h11.2v13.3h6.9zm2.5-9.5h11.2v3.6h0.1q3.4-4.8 9.6-4.8 7.5 0 11.3 6.1 3.8-6.1 11.4-6.1 12.5 0 12.5 16v24.5h-11.2v-20.6q0-5-0.5-7-1.2-4-4.8-4-3.9 0-5.2 4.7-0.8 2.4-0.8 7.6v19.3h-11.2v-19.9q0-5.4-0.4-7.3-1.2-4.4-4.9-4.4-4.1 0-5.3 4.6-0.6 2.4-0.6 7.7v19.3h-11.2zm99 20.1v1.4h-25.8q0 4.3 1.6 7.1 2.1 3.4 6.1 3.4 4.9 0 7.5-5.3l10.4 1.6q-2 5.9-6.8 9.1-4.8 3.2-11.1 3.2-8.9 0-14.3-5.8-5.3-5.7-5.3-14.8 0-9.4 4.7-15.1 5.1-6.2 14.4-6.2 9.2 0 14.1 6.3 4.5 5.7 4.5 15.1zm-25.5-5.6h14.9q-0.4-3.2-2.3-5.4-2.1-2.5-5.1-2.5-6.4 0-7.5 7.9zm30.7-14.5h11.2v3.6h0.2q3.2-4.9 10.2-4.9 13.6 0 13.6 16.6v24h-11.2v-20.8q0-5.3-0.6-7.2-1.2-3.6-5.5-3.6-4.3 0-5.8 4.3-0.9 2.5-0.9 7.9v19.4h-11.2zm62.6 9.4h-6.8v29.9h-11.2v-29.9h-3.9v-9.4h3.9v-13.3h11.2v13.3h6.8zm51.7-9.4h11.1v39.2h-11.1v-3.6h-0.1q-3.8 4.9-10.7 4.9-8.4 0-13.4-6.5-4.7-6-4.7-14.6 0-8.3 4.8-14.2 5.1-6.5 13.2-6.5 6.7 0 10.9 4.9zm-8.2 30.7q4.1 0 6.9-3.5 2.4-3.2 2.4-7.6 0-4.4-2.4-7.5-2.7-3.4-6.9-3.4-4.2 0-6.8 3.5-2.5 3.2-2.5 7.4 0 4.4 2.5 7.6 2.6 3.5 6.8 3.5zm53.1-30.7h11.2v36.9q0 23.4-19 23.4-7.8 0-13.4-4.3-6.1-4.5-6.5-12h11.9q0.8 6.8 7.7 6.8 5.3 0 7.1-4.2 1-2.6 1-8.6v-2.6h-0.2q-3.9 5.2-10.7 5.2-8.1 0-13.1-6.4-4.6-5.8-4.6-14.2 0-8.7 4.8-14.7 5.1-6.5 13.5-6.5 6.5 0 10.1 5h0.2zm-7.9 30.6q4.1 0 6.8-3.5 2.5-3.2 2.5-7.4 0-4.3-2.5-7.5-2.7-3.6-6.8-3.6-4.2 0-6.8 3.6-2.5 3.2-2.5 7.5 0 4.2 2.5 7.4 2.6 3.5 6.8 3.5zm62-10.5v1.3h-25.9q0 4.4 1.7 7.2 2.1 3.4 6.1 3.4 4.9 0 7.5-5.4l10.3 1.7q-2 5.9-6.8 9.1-4.8 3.2-11 3.2-9 0-14.3-5.8-5.3-5.8-5.3-14.8 0-9.4 4.7-15.1 5.1-6.2 14.3-6.2 9.3 0 14.2 6.3 4.5 5.6 4.5 15.1zm-25.5-5.6h14.9q-0.5-3.2-2.3-5.5-2.1-2.4-5.1-2.4-6.4 0-7.5 7.9zm30.7-14.5h11.2v3.6h0.1q3.2-4.9 10.3-4.9 13.6 0 13.6 16.6v24h-11.2v-20.8q0-5.3-0.7-7.2-1.2-3.6-5.4-3.6-4.3 0-5.8 4.3-0.9 2.5-0.9 7.8v19.5h-11.2zm69.9 1.2v10.8q-3.8-3.9-8.2-3.9-4.6 0-7.4 3.7-2.6 3.3-2.6 8 0 4.7 2.8 8 2.9 3.3 7.6 3.3 4.4 0 7.8-3.8v10.8q-4.3 2.4-9.7 2.4-8.7 0-14.3-6-5.5-6-5.5-14.8 0-8.9 5.7-14.9 5.7-6.1 14.7-6.1 5.1 0 9.1 2.5zm5.3 59l12.9-26.9-16.7-33.3h12.7l9.4 22.3 10.1-22.3h12.5l-28.6 60.2z"/><path class="a" d="m77.1 9.1l-11.4 22.1q-8.7-7.2-18.9-7.2-4.6 0-8.2 2.2-4.1 2.6-4.1 7 0 6.6 12.7 10.4l7.3 2.2q13 4 19.3 10.1 7.8 7.6 7.8 20 0 19.5-11.7 30-11.2 10-30.9 10-20.7 0-38.7-12.5l12.3-23.1q13 11.4 25.4 11.4 5.6 0 9.5-2.7 4.3-3 4.3-8.4 0-5.2-6.3-8.7-3.2-1.7-11-3.9-16-4.5-21.7-9.5-8.1-7-8.1-21.6 0-16.7 10.6-26.8 10.5-10.1 27.3-10.1 18.6 0 34.5 9.1zm85.6 18.1h-23.7v85.8h-28.6v-85.8h-23.6v-24.3h75.9zm85 85.9l-7.2-19.1h-39.4l-7.5 19.1h-30.4l42.3-110.1h31.3l41.4 110.1zm-38.7-41h23.8l-11.6-35.1h-0.3zm141.3-69.1v24.3h-34.7v18.3h31.5v24.3h-31.5v43.2h-28.6v-110.1z"/><path class="b" d="m429.5 2.9v24.3h-34.7v18.4h31.4v24.2h-31.4v43.2h-28.6v-110.1zm82.8 58v-58h28.6v61.9q0 13.6-1.7 20.8-2.5 10.9-9.8 18.1-12.6 12.2-36.5 12.2-24 0-36.5-12.2-7.4-7.2-9.9-18.1-1.7-7.1-1.7-20.8v-61.9h28.6v58q0 14 2.9 20.3 4.3 9.6 16.6 9.6 12.3 0 16.6-9.6 2.8-6.2 2.8-20.3zm75.3 52.1h-28.6v-110.1h28.6l52.4 67.3h0.3v-67.3h28.6v110.1h-28.6l-52.4-67.4h-0.3z"/></svg>